<?xml version="1.0" standalone="no"?>
<!DOCTYPE svg PUBLIC "-//W3C//DTD SVG 20010904//EN"
 "http://www.w3.org/TR/2001/REC-SVG-20010904/DTD/svg10.dtd">
<svg version="1.0" xmlns="http://www.w3.org/2000/svg"
 width="897.000000pt" height="135.000000pt" viewBox="0 0 897.000000 135.000000"
 preserveAspectRatio="xMidYMid meet">
<metadata>
Created by potrace 1.15, written by Peter Selinger 2001-2017
</metadata>
<g transform="translate(0.000000,135.000000) scale(0.100000,-0.100000)"
fill="#000000" stroke="none">
<path d="M7650 1251 c-101 -39 -187 -117 -231 -208 -40 -82 -37 -253 5 -261
15 -3 16 1 9 35 -25 120 5 222 94 311 77 78 146 107 253 107 74 0 92 -4 138
-28 30 -16 73 -46 97 -68 23 -21 44 -39 47 -39 3 0 24 18 48 40 24 22 69 53
99 68 47 23 69 27 136 27 70 0 89 -4 145 -32 77 -38 147 -104 180 -170 22 -42
25 -61 25 -150 0 -72 3 -103 11 -103 27 0 41 110 24 191 -17 81 -63 154 -133
210 -77 62 -153 89 -250 89 -92 0 -160 -23 -235 -80 l-53 -40 -22 21 c-32 31
-86 63 -137 82 -61 23 -190 22 -250 -2z"/>
<path d="M3224 1108 c3 -13 47 -199 98 -415 l93 -393 37 0 c31 0 39 4 43 22
70 293 185 790 185 798 0 7 -18 10 -47 8 l-48 -3 -66 -285 c-63 -272 -67 -283
-77 -245 -6 22 -36 151 -68 288 l-58 247 -49 0 c-46 0 -49 -1 -43 -22z"/>
<path d="M3720 710 l0 -420 165 0 165 0 0 50 0 50 -120 0 -120 0 0 140 0 140
105 0 105 0 0 45 0 45 -105 0 -105 0 0 140 0 140 120 0 120 0 0 45 0 45 -165
0 -165 0 0 -420z"/>
<path d="M4110 1085 l0 -45 75 0 75 0 0 -370 0 -370 45 0 45 0 0 370 0 370 80
0 80 0 0 45 0 45 -200 0 -200 0 0 -45z"/>
<path d="M4570 710 l0 -420 165 0 165 0 0 50 0 50 -120 0 -120 0 0 140 0 140
105 0 105 0 0 45 0 45 -105 0 -105 0 0 140 0 140 120 0 120 0 0 45 0 45 -165
0 -165 0 0 -420z"/>
<path d="M4970 715 l0 -415 45 0 45 0 2 262 3 262 105 -262 105 -262 43 0 42
0 0 415 0 415 -50 0 -50 0 -2 -261 -3 -261 -105 261 -105 261 -37 0 -38 0 0
-415z"/>
<path d="M5535 1116 c-66 -29 -105 -101 -105 -194 0 -92 33 -147 148 -243 115
-98 132 -118 139 -169 8 -59 -12 -98 -57 -111 -79 -24 -131 22 -138 121 l-4
60 -44 0 -44 0 0 -59 c0 -149 82 -232 216 -218 108 11 167 80 167 196 0 106
-18 132 -201 289 -76 66 -96 100 -89 159 5 51 27 79 68 88 81 18 129 -29 129
-127 l0 -58 51 0 51 0 -7 68 c-11 109 -46 170 -112 198 -41 18 -129 17 -168 0z"/>
<path d="M5870 715 l0 -415 50 0 50 0 0 144 c0 122 3 147 18 165 17 21 18 19
111 -144 l93 -165 54 0 c54 0 54 0 43 23 -7 12 -61 108 -120 213 l-109 192
120 193 c66 107 120 197 120 201 0 5 -24 8 -53 8 l-53 0 -109 -179 -110 -178
-3 178 -2 179 -50 0 -50 0 0 -415z"/>
<path d="M6495 1108 c-3 -13 -27 -117 -54 -233 -27 -116 -66 -284 -86 -375
-20 -91 -39 -173 -41 -182 -5 -15 2 -18 44 -18 l49 0 18 81 c9 44 21 96 26
115 l10 34 78 0 78 0 25 -112 24 -113 47 -3 c26 -2 47 1 47 5 1 4 -41 191 -92
416 l-92 407 -38 0 c-31 0 -39 -4 -43 -22z"/>
<path d="M6820 716 l0 -416 45 0 45 0 0 185 0 185 70 0 c83 0 126 16 163 59
37 45 50 96 45 187 -5 102 -26 146 -86 181 -41 24 -58 27 -164 31 l-118 4 0
-416z m234 303 c67 -31 60 -223 -9 -249 -15 -6 -51 -10 -81 -10 l-54 0 0 135
0 135 60 0 c32 0 70 -5 84 -11z"/>
<path d="M160 690 l0 -390 25 0 25 0 1 273 1 272 48 -215 c26 -118 53 -241 59
-272 10 -46 16 -58 31 -58 23 0 21 -5 87 300 l48 225 3 -262 2 -263 25 0 25 0
0 390 0 390 -24 0 c-27 0 -17 34 -107 -379 -35 -162 -56 -237 -61 -225 -4 11
-35 143 -68 294 -75 339 -67 310 -96 310 l-24 0 0 -390z"/>
<path d="M620 685 l0 -395 140 0 140 0 0 25 0 25 -120 0 -120 0 0 165 0 165
105 0 c98 0 105 1 105 20 0 19 -7 20 -105 20 l-105 0 0 165 0 165 120 0 c113
0 120 1 120 20 0 19 -7 20 -140 20 l-140 0 0 -395z"/>
<path d="M970 690 l0 -390 104 0 c90 0 107 3 136 23 19 12 43 38 54 57 20 33
21 51 21 305 0 253 -1 273 -21 310 -32 62 -86 85 -201 85 l-93 0 0 -390z m211
324 c54 -27 59 -57 59 -331 0 -231 -1 -250 -20 -281 -26 -42 -73 -62 -150 -62
l-60 0 0 345 0 345 70 0 c45 0 82 -6 101 -16z"/>
<path d="M1370 690 l0 -390 25 0 25 0 0 390 0 390 -25 0 -25 0 0 -390z"/>
<path d="M1582 1060 c-34 -15 -48 -29 -65 -67 -21 -45 -22 -61 -22 -293 0
-272 7 -319 57 -366 25 -25 38 -29 101 -32 59 -2 78 1 105 18 43 26 71 90 72
158 0 44 -3 52 -19 52 -15 0 -20 -10 -25 -52 -9 -67 -29 -104 -68 -124 -66
-34 -148 2 -168 75 -13 49 -13 466 1 515 16 58 52 86 110 86 71 0 106 -34 122
-117 9 -51 15 -63 31 -63 17 0 18 6 14 64 -7 79 -30 120 -83 146 -52 25 -108
25 -163 0z"/>
<path d="M1900 690 l0 -390 25 0 25 0 0 390 0 390 -25 0 -25 0 0 -390z"/>
<path d="M2030 690 c0 -382 0 -390 20 -390 19 0 20 8 22 314 l3 313 126 -311
c107 -264 129 -311 147 -314 l22 -3 0 390 0 391 -25 0 -25 0 -2 -312 -3 -311
-124 311 c-100 249 -128 312 -143 312 -17 0 -18 -20 -18 -390z"/>
<path d="M2509 1057 c-47 -31 -69 -79 -69 -151 0 -90 26 -132 133 -224 133
-112 156 -142 157 -210 0 -81 -40 -122 -120 -122 -78 0 -113 36 -126 128 -5
43 -10 52 -27 52 -18 0 -19 -5 -15 -64 7 -79 30 -120 83 -146 100 -48 211 -7
244 89 34 103 -4 181 -139 291 -108 87 -140 130 -147 193 -8 85 59 153 140
143 66 -8 107 -64 107 -146 0 -37 2 -40 26 -40 26 0 27 1 21 55 -12 119 -67
175 -172 175 -48 0 -70 -5 -96 -23z"/>
<path d="M2830 690 l0 -390 25 0 25 0 0 131 c0 127 1 134 28 175 15 24 29 44
32 44 3 0 49 -79 104 -175 91 -162 100 -175 126 -175 28 0 28 1 -86 201 -63
110 -114 202 -114 204 0 2 42 70 93 152 51 81 103 165 116 186 l23 37 -30 0
c-27 0 -37 -14 -158 -210 l-129 -210 -3 210 -2 210 -25 0 -25 0 0 -390z"/>
<path d="M7796 870 l-66 -100 -245 0 c-211 0 -245 -2 -245 -15 0 -13 35 -15
259 -15 l258 0 54 81 c62 95 45 106 160 -99 44 -79 85 -142 90 -140 5 2 47 59
93 127 l85 123 23 -46 22 -46 298 2 c188 2 299 7 301 13 1 6 -100 11 -286 13
l-287 2 -32 65 c-18 36 -35 65 -38 65 -3 0 -43 -59 -90 -130 -76 -115 -86
-128 -98 -112 -7 9 -49 81 -94 159 -44 79 -83 145 -88 148 -4 2 -37 -40 -74
-95z"/>
<path d="M7455 710 c-10 -16 10 -43 92 -121 125 -119 498 -429 516 -429 9 0
260 203 373 301 154 133 234 215 234 239 0 32 -15 24 -72 -37 -67 -71 -245
-228 -409 -360 l-126 -101 -119 95 c-168 135 -306 255 -397 345 -43 43 -80 78
-82 78 -2 0 -7 -4 -10 -10z"/>
</g>
</svg>
